# xmcd
#
# Track frame offsets:
#	150
#	7210
#	24817
#	43007
#	65447
#	87438
#	112399
#	132328
#	155660
#	178673
#	197473
#
# Disc length: 2873 seconds
#
# Revision: 0
# Processed by: cddbd v1.4PL0 Copyright (c) Steve Scherf et al.
# Submitted via: dBpowerAMP V4.0
#
DISCID=960b370b
DTITLE=Pascal Ferraro and friends - Mi confido in te
DYEAR=2003
DGENRE=Italien
TTITLE0=Preludio
TTITLE1=Pronti per il combattimento
TTITLE2=Mi confido in te
TTITLE3=Ecco Dio
TTITLE4=Cuori feriti
TTITLE5=Tre croci
TTITLE6=Col tuo sangue
TTITLE7=Il ver tesoro
TTITLE8=L'histoire de nos vies
TTITLE9=Sulla via
TTITLE10=In quei momenti
EXTD=
EXTT0=
EXTT1=
EXTT2=
EXTT3=
EXTT4=
EXTT5=
EXTT6=
EXTT7=
EXTT8=
EXTT9=
EXTT10=
PLAYORDER=
